<svg width="14" height="16" viewBox="0 0 14 16" fill="none" xmlns="http://www.w3.org/2000/svg">
<path d="M6.99913 0.166534C3.13425 0.166534 0 3.76253 0 8.19853C0 11.7465 2.0055 14.7565 4.788 15.8195C5.138 15.8935 5.26575 15.6455 5.26575 15.4325C5.26575 15.2415 5.25962 14.7365 5.25612 14.0665C3.30925 14.5515 2.898 12.9895 2.898 12.9895C2.58038 12.0615 2.121 11.8145 2.121 11.8145C1.48488 11.3165 2.16825 11.3265 2.16825 11.3265C2.87087 11.3835 3.24013 12.1545 3.24013 12.1545C3.86488 13.3815 4.879 13.0275 5.278 12.8215C5.341 12.3025 5.52212 11.9485 5.7225 11.7475C4.1685 11.5445 2.534 10.8555 2.534 7.77853C2.534 6.90153 2.807 6.18453 3.255 5.62253C3.18238 5.41953 2.94263 4.60253 3.32325 3.49753C3.32325 3.49753 3.91125 3.28153 5.24825 4.32053C5.8065 4.14253 6.405 4.05353 7.00088 4.05053C7.595 4.05453 8.19437 4.14253 8.7535 4.32153C10.0896 3.28253 10.6767 3.49853 10.6767 3.49853C11.0582 4.60453 10.8185 5.42053 10.7467 5.62353C11.1956 6.18553 11.466 6.90253 11.466 7.77953C11.466 10.8645 9.82975 11.5435 8.2705 11.7425C8.52162 11.9905 8.74562 12.4805 8.74562 13.2295C8.74562 14.3035 8.73687 15.1695 8.73687 15.4325C8.73687 15.6475 8.86287 15.8975 9.21812 15.8185C11.9962 14.7545 14 11.7455 14 8.19853C14 3.76253 10.8658 0.166534 6.99913 0.166534Z" fill="#C4C4CC"/>
</svg>
